<?xml version="1.0" encoding="utf-8"?>
<!-- Generator: Adobe Illustrator 27.5.0, SVG Export Plug-In . SVG Version: 6.00 Build 0)  -->
<svg version="1.1" id="Layer_1" xmlns="http://www.w3.org/2000/svg" xmlns:xlink="http://www.w3.org/1999/xlink" x="0px" y="0px"
	 viewBox="0 0 105.23 36.33" style="enable-background:new 0 0 105.23 36.33;" xml:space="preserve">
<style type="text/css">
	.st0{fill:#FFFFFF;}
</style>
<g>
	<g>
		<path class="st0" d="M7.06,3.16c1.85,0,3.28,1.96,3.9,5.32l0.32-0.17l-0.84-7.83c-0.35,0.54-0.56,0.64-1.1,0.64H7.09H0.85H0.35
			v0.39c0,0,0.21,0,0.49,0.13c0.4,0.2,0.94,0.71,1.03,2.04c0,0.12,0.01,0.25,0.01,0.38v17.98v0.04c0,1.5-0.6,2.11-1.04,2.35
			c-0.28,0.15-0.49,0.16-0.49,0.16v0.38h0.49h5.88h0.36v-0.38c0,0-0.16-0.02-0.36-0.14c-0.4-0.23-1.01-0.82-1.01-2.37V9.94l0.9,0.01
			c1.05,0,1.78,1.28,2.14,3.79l0.31-0.11l-0.6-8.54L8.15,5.12c0,1.93-0.45,2.68-1.56,2.68H5.75V5.09C5.75,3.62,6.08,3.16,7.06,3.16z
			"/>
		<path class="st0" d="M22.67,24.58c-1.71,0-1.45-2.58-1.45-3.56L21.22,4.25c0-1.42,0.22-2.74,1.46-2.74c1.15,0,1.54,1.28,1.54,2.74
			v16.77C24.21,21.91,24.36,24.58,22.67,24.58z M17.58,12.43c-1.66,0.44-3.74,2.43-3.74,2.43C14.69,8.82,17.6,4.3,17.6,4.3
			S17.59,8.2,17.58,12.43 M33.42,15.38c-0.42,2.25-0.85,3.54-1.69,5.11c-0.85,1.57-1.67,2.36-2.52,2.36c-0.69,0-1.09-0.61-1.16-1.87
			V4.05c0-1.86,0.55-2.2,1.04-2.41c0.05-0.02,0.09-0.04,0.13-0.05l0.2-0.08V1.12h-0.33H16.07c-1.59,1.64-5.81,11.46-5.81,21.43
			c0,0.96-0.43,2.03-1.3,2.03l-0.01,0.38h4.75v-0.38c-0.67-0.37-1.08-1.26-1.08-2.75c0-0.85,0.26-1.63,0.27-1.64
			c0.2-0.67,0.43-1.26,0.67-1.79c1.23-2.63,2.91-3.51,4.01-3.79c-0.01,3.66-0.01,7.01-0.01,7.52c0,2.45-1.39,2.45-1.39,2.45
			l0.01,0.38h13.23h1.79c0.56,0,0.8,0.14,1.04,0.54l1.42-10.01L33.42,15.38"/>
		<path class="st0" d="M44.16,15.38c-0.42,2.25-0.84,3.54-1.69,5.11c-0.85,1.57-1.67,2.36-2.52,2.36c-0.69,0-1.1-0.61-1.15-1.87
			V4.05c0-1.86,0.55-2.2,1.04-2.41c0.04-0.02,0.09-0.04,0.13-0.05l0.19-0.08V1.12h-0.33h-5.97h-0.44v0.39c0,0,0.19,0,0.44,0.11
			c0.45,0.19,1.08,0.76,1.09,2.43l0,0l0,0v18.01v0.01l0,0c-0.01,0.13-0.01,0.26-0.01,0.38c-0.01,0.1-0.02,0.21-0.04,0.3
			c-0.15,1.02-0.62,1.47-0.99,1.67c-0.28,0.15-0.49,0.16-0.49,0.16v0.38h0.49h6.25h1.79c0.56,0,0.8,0.14,1.05,0.54l1.42-10.01
			L44.16,15.38z"/>
		<path class="st0" d="M54.6,0.8l0.15,8.22l-0.28,0.03c-0.47-3.67-1.86-6-3.58-6c-1.14,0-2.01,1.14-2.01,2.64
			c0,1.18,0.38,1.85,1.49,2.54c0.21,0.14,0.7,0.5,1.51,1.04c0.59,0.43,1.09,0.79,1.48,1.08c0.55,0.39,1.02,0.89,1.38,1.39
			c0.82,1.22,1.33,3.15,1.33,5.19c0,4.82-2.54,8.4-5.99,8.4c-0.74,0-1.54-0.18-2.54-0.57c-0.87-0.32-0.93-0.35-1.1-0.35
			c-0.31,0-0.53,0.17-0.89,0.74l-0.42-9.72l0.29-0.07c0.34,2.39,0.74,3.75,1.47,5.14c0.86,1.64,1.9,2.51,3.05,2.51
			c1.55,0,2.75-1.72,2.75-3.97c0-1.83-0.54-2.61-2.69-3.96c-2.48-1.54-3-2-3.62-3.18c-0.57-1.07-0.87-2.43-0.87-3.97
			c0-4.18,2.15-7.15,5.15-7.15c0.61,0,1.1,0.11,2.06,0.43c0.63,0.18,0.8,0.22,1.06,0.22c0.32,0,0.5-0.11,0.72-0.43
			C54.52,0.94,54.56,0.87,54.6,0.8z"/>
		<path class="st0" d="M76.63,21.88c0,2.09-0.68,2.69-1.49,2.7c-0.77,0-1.47-0.53-1.47-2.66V4.05c0-2.59,1.33-2.55,1.46-2.54l0,0
			c0,0,0,0,0.01,0l0,0l0,0c0.12,0,1.49,0.03,1.49,2.54V21.88z M85.78,16.42c-0.94,4.18-2.52,6.5-4.37,6.5c-0.98,0-1.3-0.64-1.3-2.54
			V9.91h0.82c1.06,0,1.81,1.29,2.1,3.68l0.28-0.07l-0.52-8.37L82.54,5.2L82.5,5.59c-0.19,1.68-0.56,2.25-1.54,2.25H80.1V5.16
			c0-1.5,0.32-2.03,1.26-2.03c1.68,0,3.06,2.11,3.52,5.4l0.26-0.11l-0.7-7.97c-0.22,0.57-0.4,0.68-1,0.68H64.55v0.39
			c0,0,1.06,0.34,0.96,1.79c-0.01,0.22-0.02,0.57-0.11,1.07l-2.18,13.98l-1.9-13.79c-0.07-0.61-0.08-1.01-0.11-1.29
			c-0.17-1.52,1.06-1.75,1.06-1.75V1.12h-6.34v0.39c0,0,1.06,0.27,1.4,2.61l2.94,17.8c0.13,0.86,0.15,1.04,0.15,1.29
			c0,1.37-1.21,1.37-1.21,1.37v0.38h6.04v-0.38c0,0-1.29-0.11-1.11-1.41c0.01-0.14,0.15-1.04,0.15-1.04l2.96-16.94
			c0.36-2.75,0.58-3.6,1.45-3.67c0.78,0.04,1.32,0.37,1.32,3.04v17.51c0,2.41-1.54,2.51-1.54,2.51v0.38h15.08
			c0.8,0,0.96,0.07,1.14,0.64l1.3-9.07L85.78,16.42"/>
		<path class="st0" d="M97.89,17.96l1.57-13.47c0.09-0.79,0.08-1.04,0.11-1.29c0.19-1.46-0.96-1.68-0.96-1.68V1.12h3.87v0.39
			c0,0-0.94-0.08-1.37,3.18l-2.05,16.91c-0.07,0.67-0.13,1.24-0.13,1.46c0,1.51,0.52,1.41,0.88,1.51v0.38h-5.5v-0.38
			c0,0,0.79,0,0.79-1.33c0-0.18,0-0.54-0.02-0.83L93.75,6.05l-1.63,15.83l-0.09,1.01c-0.02,0.21-0.02,0.36-0.02,0.46
			c0,1.23,0.79,1.23,0.79,1.23v0.38h-5.14v-0.38c0,0,0.85,0,0.85-1.37c0-0.18-0.03-0.29-0.07-0.79L86.62,4.16
			c-0.3-2.56-1.25-2.65-1.25-2.65V1.12h5.82v0.39l-0.2,0.04c-0.44,0.1-0.69,1.21-0.69,2c0,0.22,0,0.47,0.07,1.15l0.96,12.97
			L92.6,3.66c0.02-0.14,0.01-0.32,0.02-0.47c0.09-1.59-0.96-1.68-0.96-1.68V1.12h5.74v0.39c0,0-0.93,0-0.87,1.54
			c0,0.07,0,0.18,0.02,0.46l0.07,0.64L97.89,17.96z"/>
		<path class="st0" d="M103.16,22.54c-0.08-0.03-0.19-0.05-0.34-0.05h-0.14v0.64h0.23c0.14,0,0.25-0.02,0.32-0.08
			c0.08-0.05,0.11-0.14,0.11-0.26C103.34,22.67,103.28,22.58,103.16,22.54z M102.1,24.32V22.1c0.13,0,0.34,0,0.62,0
			c0.28,0,0.43,0.01,0.46,0.01c0.17,0.02,0.32,0.05,0.44,0.11c0.2,0.11,0.3,0.28,0.3,0.53c0,0.19-0.05,0.32-0.16,0.41
			c-0.1,0.08-0.23,0.13-0.38,0.15c0.14,0.03,0.25,0.07,0.32,0.12c0.13,0.11,0.2,0.27,0.2,0.49v0.21c0,0.02,0,0.04,0.01,0.06
			c0,0.02,0,0.04,0.01,0.06l0.02,0.06h-0.56c-0.02-0.07-0.03-0.17-0.03-0.31c-0.01-0.13-0.02-0.22-0.04-0.27
			c-0.03-0.08-0.09-0.14-0.16-0.17c-0.04-0.02-0.11-0.03-0.19-0.04l-0.13-0.01h-0.12v0.79H102.1 M101.81,22.06
			c-0.32,0.32-0.48,0.71-0.48,1.15c0,0.46,0.16,0.85,0.49,1.18c0.32,0.32,0.7,0.48,1.16,0.48c0.45,0,0.83-0.16,1.16-0.48
			c0.32-0.33,0.48-0.72,0.48-1.18c0-0.45-0.16-0.83-0.47-1.15c-0.33-0.33-0.71-0.5-1.16-0.5C102.52,21.56,102.13,21.73,101.81,22.06
			 M104.37,24.65c-0.39,0.38-0.85,0.56-1.4,0.56c-0.57,0-1.04-0.19-1.42-0.58c-0.39-0.38-0.58-0.86-0.58-1.43
			c0-0.59,0.21-1.08,0.63-1.46c0.39-0.37,0.85-0.55,1.38-0.55c0.55,0,1.02,0.2,1.41,0.59c0.4,0.39,0.59,0.86,0.59,1.42
			C104.98,23.77,104.78,24.25,104.37,24.65"/>
	</g>
	<g>
		<g>
			<g>
				<path class="st0" d="M55.12,33.04c0.12,0.02,0.23,0.03,0.32,0.03c1.31,0,1.58-1.05,1.58-1.44c0-0.39-0.16-0.75-0.37-0.94
					c-0.3-0.27-0.68-0.36-1.1-0.36c-0.13,0-0.24,0.01-0.3,0.05c-0.06,0.04-0.1,0.14-0.1,0.24L55.12,33.04z M55.11,33.8
					c0,0.5,0.01,1.44,0.03,1.56c0.02,0.17,0.08,0.32,0.22,0.32h0.42c0.06,0,0.07,0.02,0.07,0.06v0.2c0,0.06-0.02,0.08-0.09,0.08
					c-0.11,0-0.28-0.02-1.15-0.02c-0.82,0-1.02,0.02-1.1,0.02c-0.05,0-0.07-0.02-0.07-0.08v-0.19c0-0.04,0.01-0.07,0.04-0.07h0.29
					c0.19,0,0.32-0.05,0.32-0.28c0.01-0.83,0.01-1.62,0.01-2.41v-2.2c0-0.29-0.12-0.42-0.26-0.42h-0.33c-0.04,0-0.06-0.01-0.06-0.05
					V30.1c0-0.04,0.02-0.06,0.06-0.06c0.06,0,0.33,0.02,1.15,0.02c0.46,0,1.25-0.02,1.49-0.02c0.67,0,1.19,0.23,1.53,0.52
					c0.3,0.27,0.45,0.62,0.45,0.94c0,1.05-0.64,1.49-1.56,1.64v0.04c0.23,0.08,0.38,0.23,0.5,0.38c0.11,0.13,0.62,0.92,0.69,1.03
					c0.05,0.08,0.59,0.84,0.72,0.95c0.16,0.14,0.39,0.16,0.59,0.16c0.05,0,0.07,0.03,0.07,0.06v0.17c0,0.06-0.02,0.09-0.07,0.09
					c-0.07,0-0.28-0.02-0.82-0.02c-0.23,0-0.55,0.02-0.73,0.02c-0.1-0.08-0.26-0.3-0.37-0.48c-0.15-0.23-0.47-0.84-0.54-0.97
					c-0.09-0.15-0.32-0.53-0.46-0.72c-0.21-0.3-0.4-0.52-0.76-0.52c-0.03,0-0.17,0.01-0.26,0.02V33.8"/>
			</g>
			<g>
				<path class="st0" d="M63.65,33.56c0,0.46,0.02,1.27,0.02,1.42c0,0.44,0.15,0.6,0.34,0.65c0.14,0.03,0.33,0.07,0.65,0.07
					c0.15,0,0.53-0.02,0.7-0.03c0.16-0.01,0.47-0.1,0.69-0.28c0.15-0.13,0.62-0.69,0.78-0.89c0.03-0.04,0.06-0.05,0.1-0.04
					l0.13,0.09c0.03,0.02,0.03,0.04,0.02,0.08l-0.4,1.25c-0.03,0.08-0.08,0.13-0.19,0.13c-0.08,0-0.73-0.02-3.53-0.02
					c-0.62,0-0.92,0.02-1.07,0.02c-0.05,0-0.07-0.01-0.07-0.07v-0.2c0-0.05,0.02-0.07,0.09-0.07h0.28c0.38,0,0.42-0.05,0.42-0.36
					v-1.99v-0.82c0-0.68-0.02-1.72-0.04-1.85c-0.03-0.22-0.12-0.29-0.37-0.29h-0.32c-0.03,0-0.05-0.01-0.05-0.06V30.1
					c0-0.04,0-0.06,0.05-0.06c0.18,0,0.49,0.03,1.17,0.02h0.23c0.37,0,2.29-0.01,2.67-0.01c0.13,0,0.29-0.01,0.33-0.01
					c0.05,0,0.06,0.01,0.07,0.05c0.03,0.11,0.35,1.25,0.38,1.33c0.02,0.05,0.01,0.08-0.03,0.09l-0.15,0.07
					c-0.02,0.01-0.05,0-0.08-0.04c-0.03-0.05-0.72-0.82-0.92-0.94c-0.18-0.1-0.4-0.21-0.63-0.21l-1.27-0.04l-0.01,2.42
					c0.25,0,0.85-0.01,0.96-0.04c0.18-0.03,0.28-0.1,0.38-0.29c0.05-0.11,0.14-0.32,0.14-0.47c0-0.05,0.03-0.07,0.07-0.07l0.21,0.02
					c0.04,0,0.06,0.02,0.06,0.06c-0.02,0.14-0.02,0.69-0.02,0.91c0,0.34,0.04,0.74,0.05,0.92c0,0.04-0.01,0.05-0.07,0.06l-0.18,0.04
					c-0.04,0.01-0.05-0.01-0.07-0.06c-0.03-0.13-0.09-0.32-0.13-0.42c-0.08-0.17-0.23-0.29-0.42-0.3c-0.3-0.04-0.7-0.05-0.97-0.05
					L63.65,33.56z"/>
			</g>
			<g>
				<path class="st0" d="M70.54,34.12c0.04,0,0.05,0.02,0.05,0.07c0.01,0.27,0.08,0.59,0.31,0.96c0.25,0.4,0.69,0.6,1.1,0.6
					c0.46,0,1.09-0.28,1.09-0.98c0-0.77-0.35-1.03-1.25-1.36c-0.26-0.1-0.81-0.34-1.22-0.71c-0.29-0.26-0.42-0.68-0.42-1.2
					c0-0.46,0.18-0.85,0.58-1.17c0.33-0.29,0.7-0.4,1.19-0.4c0.55,0,0.89,0.13,1.05,0.2c0.08,0.03,0.13,0.01,0.18-0.03L73.34,30
					c0.03-0.03,0.07-0.05,0.11-0.05c0.05,0,0.07,0.05,0.07,0.14c0,0.13,0.14,1.3,0.14,1.39c0,0.03-0.02,0.05-0.06,0.06l-0.13,0.04
					c-0.04,0.01-0.07,0-0.08-0.05c-0.09-0.23-0.22-0.57-0.52-0.89c-0.21-0.22-0.48-0.34-0.87-0.34c-0.67,0-0.94,0.53-0.94,0.84
					c0,0.29,0.03,0.54,0.23,0.75c0.22,0.22,0.68,0.42,1.02,0.52c0.49,0.15,0.89,0.31,1.21,0.65c0.27,0.28,0.42,0.63,0.42,1.2
					c0,1.02-0.67,1.86-1.78,1.86c-0.68,0-1.09-0.15-1.42-0.4c-0.1-0.07-0.15-0.1-0.2-0.1c-0.05,0-0.08,0.07-0.13,0.15
					c-0.05,0.08-0.08,0.1-0.15,0.1c-0.07,0-0.1-0.05-0.1-0.14c0.02-0.1,0.14-1.46,0.16-1.56c0.01-0.05,0.02-0.06,0.05-0.06
					L70.54,34.12z"/>
			</g>
			<g>
				<path class="st0" d="M79.19,30.78c-0.51,0.49-0.75,1.36-0.75,2.02c0,2.18,1.34,2.96,2.04,2.96c1.69,0,1.96-1.88,1.96-2.58
					c0-1.82-1.24-2.86-2.05-2.86C80.25,30.31,79.76,30.22,79.19,30.78z M82.41,30.6c0.63,0.51,1.14,1.34,1.14,2.48
					c0,0.62-0.17,1.28-0.62,1.84c-0.54,0.67-1.26,1.19-2.51,1.19c-0.5,0-1.22-0.15-1.89-0.56c-0.59-0.36-1.22-1.27-1.22-2.47
					c0-0.5,0.15-1.3,0.77-2.08c0.73-0.91,1.64-1.07,2.36-1.07C81.05,29.94,81.72,30.05,82.41,30.6"/>
			</g>
			<g>
				<path class="st0" d="M88.63,33.04c0.12,0.02,0.22,0.03,0.32,0.03c1.31,0,1.58-1.05,1.58-1.44c0-0.39-0.16-0.75-0.37-0.94
					c-0.31-0.27-0.69-0.36-1.1-0.36c-0.14,0-0.24,0.01-0.3,0.05c-0.07,0.04-0.1,0.14-0.1,0.24L88.63,33.04z M88.61,33.8
					c0,0.5,0.02,1.44,0.03,1.56c0.02,0.17,0.08,0.32,0.21,0.32h0.43c0.04,0,0.06,0.02,0.06,0.06v0.2c0,0.06-0.03,0.08-0.09,0.08
					c-0.11,0-0.28-0.02-1.14-0.02c-0.83,0-1.02,0.02-1.11,0.02c-0.05,0-0.07-0.02-0.07-0.08v-0.19c0-0.04,0.02-0.07,0.05-0.07h0.29
					c0.18,0,0.32-0.05,0.32-0.28c0.02-0.83,0.02-1.62,0.02-2.41v-2.2c0-0.29-0.12-0.42-0.27-0.42h-0.33c-0.04,0-0.06-0.01-0.06-0.05
					V30.1c0-0.04,0.02-0.06,0.06-0.06c0.06,0,0.33,0.02,1.15,0.02c0.46,0,1.23-0.02,1.48-0.02c0.67,0,1.19,0.23,1.52,0.52
					c0.31,0.27,0.45,0.62,0.45,0.94c0,1.05-0.63,1.49-1.56,1.64v0.04c0.23,0.08,0.39,0.23,0.5,0.38c0.1,0.13,0.62,0.92,0.68,1.03
					c0.05,0.08,0.59,0.84,0.71,0.95c0.16,0.14,0.4,0.16,0.59,0.16c0.05,0,0.07,0.03,0.07,0.06v0.17c0,0.06-0.01,0.09-0.07,0.09
					c-0.07,0-0.28-0.02-0.83-0.02c-0.23,0-0.55,0.02-0.72,0.02c-0.11-0.08-0.27-0.3-0.37-0.48c-0.15-0.23-0.48-0.84-0.56-0.97
					c-0.08-0.15-0.32-0.53-0.45-0.72c-0.21-0.3-0.4-0.52-0.75-0.52c-0.03,0-0.18,0.01-0.27,0.02V33.8"/>
			</g>
			<g>
				<path class="st0" d="M97.35,30.41h-0.24c-0.27,0-0.87,0-1.22,0.11c-0.27,0.12-0.59,0.67-0.75,0.96
					c-0.02,0.04-0.04,0.08-0.09,0.06l-0.17-0.06c-0.03-0.02-0.04-0.04-0.03-0.08c0.08-0.32,0.37-1.42,0.4-1.54
					c0.01-0.12,0.07-0.15,0.09-0.15c0.05,0,0.09,0.03,0.14,0.08c0.17,0.17,0.33,0.21,0.57,0.22c0.45,0.01,0.81,0.04,1.62,0.04h0.46
					c0.92,0,1.27-0.03,1.66-0.04c0.16-0.01,0.48-0.13,0.6-0.22c0.08-0.05,0.1-0.08,0.15-0.08c0.06,0,0.07,0.03,0.09,0.13
					c0.02,0.15,0.19,1.19,0.25,1.59c0.01,0.05,0,0.07-0.03,0.07l-0.17,0.07c-0.03,0.01-0.05-0.02-0.07-0.07
					c-0.12-0.23-0.43-0.77-0.67-0.94c-0.23-0.13-0.99-0.15-1.29-0.15h-0.23v4.46c0,0.64,0.08,0.81,0.28,0.81h0.49
					c0.04,0,0.06,0.03,0.06,0.07v0.17c0,0.05-0.02,0.09-0.09,0.09c-0.08,0-0.34-0.02-1.25-0.02c-0.86,0-1.21,0.02-1.33,0.02
					c-0.06,0-0.07-0.01-0.07-0.08v-0.19c0-0.05,0.03-0.07,0.06-0.07h0.48c0.17,0,0.27-0.1,0.28-0.23c0.03-0.22,0.03-2.78,0.03-2.95
					V30.41z"/>
			</g>
		</g>
		<g>
			<g>
				<path class="st0" d="M6.46,34.55c0.03,0.03,0.04,0.05,0.02,0.08c-0.51,0.72-1.31,1.41-2.5,1.41c-1.07,0-1.68-0.32-2.2-0.79
					c-0.62-0.55-0.9-1.53-0.9-2.26c0-0.82,0.27-1.61,0.85-2.25c0.45-0.48,1.17-0.89,2.18-0.89c0.77,0,1.38,0.24,1.69,0.41
					c0.12,0.07,0.15,0.07,0.17,0l0.07-0.22c0.01-0.05,0.03-0.05,0.13-0.05c0.11,0,0.12,0.02,0.12,0.13c0,0.15,0.17,1.49,0.2,1.75
					c0.01,0.04,0,0.07-0.03,0.08L6.1,32c-0.04,0.02-0.07-0.01-0.1-0.08c-0.1-0.3-0.3-0.72-0.65-1.09c-0.37-0.35-0.8-0.62-1.46-0.62
					C2.56,30.21,2,31.41,2,32.62c0,0.52,0.15,1.51,0.77,2.17c0.56,0.59,1.04,0.66,1.44,0.66c0.92,0,1.65-0.46,2-0.97
					c0.04-0.06,0.08-0.08,0.1-0.06L6.46,34.55z"/>
			</g>
			<g>
				<path class="st0" d="M12.2,33.27c-0.08-0.25-0.65-2.15-0.7-2.32c-0.03-0.1-0.05-0.15-0.08-0.15c-0.05,0-0.08,0.03-0.11,0.11
					c-0.03,0.1-0.79,2.17-0.84,2.36H12.2z M10.34,33.61c-0.06,0.2-0.48,1.39-0.52,1.62c-0.02,0.06-0.02,0.13-0.02,0.17
					c0,0.11,0.13,0.2,0.3,0.2h0.36c0.06,0,0.08,0.02,0.08,0.04v0.21c0,0.05-0.02,0.09-0.07,0.09c-0.12,0-0.47-0.03-1.05-0.03
					c-0.62,0-0.81,0.03-0.92,0.03c-0.05,0-0.05-0.05-0.05-0.11v-0.16c0-0.05,0.01-0.07,0.05-0.07h0.25c0.23,0,0.38-0.12,0.53-0.38
					c0.09-0.15,0.68-1.66,0.94-2.37c0.06-0.17,0.74-1.98,0.82-2.2c0.02-0.08,0.07-0.23,0.02-0.28c-0.03-0.02-0.05-0.07-0.05-0.1
					c0-0.04,0.02-0.07,0.08-0.09c0.27-0.07,0.73-0.32,0.83-0.42c0.05-0.05,0.08-0.08,0.13-0.08c0.05,0,0.08,0.1,0.09,0.15
					c0.15,0.52,0.81,2.4,0.96,2.93c0.2,0.65,0.74,2.21,0.85,2.44c0.15,0.29,0.37,0.39,0.54,0.39h0.27c0.05,0,0.07,0.02,0.07,0.06
					v0.18c0,0.05-0.02,0.1-0.09,0.1c-0.15,0-0.32-0.03-1.24-0.03c-0.71,0-0.99,0.03-1.18,0.03c-0.07,0-0.08-0.05-0.08-0.1v-0.17
					c0-0.05,0.02-0.07,0.06-0.07h0.22c0.23,0,0.3-0.09,0.25-0.31c-0.06-0.3-0.4-1.37-0.5-1.68H10.34"/>
			</g>
			<g>
				<path class="st0" d="M17.76,34.04c0.03,0,0.05,0.02,0.05,0.07c0.02,0.27,0.08,0.59,0.32,0.95c0.25,0.41,0.69,0.61,1.1,0.61
					c0.45,0,1.09-0.28,1.09-0.98c0-0.77-0.35-1.02-1.24-1.36c-0.27-0.1-0.82-0.33-1.22-0.7c-0.28-0.27-0.42-0.69-0.42-1.2
					c0-0.47,0.18-0.86,0.59-1.17c0.33-0.29,0.7-0.41,1.19-0.41c0.55,0,0.89,0.14,1.05,0.2c0.08,0.04,0.13,0.02,0.17-0.03l0.11-0.11
					c0.03-0.03,0.06-0.04,0.12-0.04c0.05,0,0.06,0.04,0.06,0.13c0,0.13,0.14,1.31,0.14,1.39c0,0.03-0.01,0.05-0.05,0.06l-0.13,0.04
					c-0.04,0.01-0.07,0-0.09-0.05c-0.08-0.23-0.22-0.57-0.52-0.89c-0.21-0.23-0.49-0.35-0.87-0.35c-0.67,0-0.94,0.53-0.94,0.85
					c0,0.29,0.04,0.53,0.23,0.75c0.22,0.22,0.69,0.42,1.02,0.52c0.48,0.15,0.88,0.32,1.2,0.66c0.27,0.28,0.42,0.63,0.42,1.19
					c0,1.02-0.67,1.86-1.78,1.86c-0.68,0-1.09-0.16-1.42-0.4c-0.1-0.07-0.15-0.11-0.2-0.11c-0.05,0-0.08,0.07-0.13,0.15
					c-0.05,0.09-0.08,0.1-0.15,0.1c-0.07,0-0.1-0.05-0.1-0.14c0.01-0.1,0.13-1.46,0.15-1.56c0.01-0.05,0.02-0.06,0.05-0.06
					L17.76,34.04z"/>
			</g>
			<g>
				<path class="st0" d="M26.86,33.2c0,0.08,0.01,2.01,0.01,2.1c0,0.27,0.14,0.3,0.34,0.3h0.35c0.03,0,0.07,0.02,0.07,0.06v0.21
					c0,0.05-0.04,0.07-0.09,0.07c-0.1,0-0.43-0.03-1.22-0.03c-0.83,0-1.2,0.03-1.29,0.03c-0.05,0-0.06-0.01-0.06-0.06v-0.23
					c0-0.03,0.02-0.05,0.06-0.05h0.33c0.17,0,0.35-0.02,0.39-0.24c0.02-0.12,0.04-1.93,0.04-2.38v-0.59c0-0.2-0.02-1.71-0.02-1.82
					c-0.03-0.2-0.11-0.28-0.35-0.28h-0.43c-0.05,0-0.07-0.02-0.07-0.06v-0.21c0-0.04,0.02-0.06,0.05-0.06c0.1,0,0.53,0.02,1.35,0.02
					c0.81,0,1.07-0.02,1.19-0.02c0.05,0,0.07,0.03,0.07,0.07v0.19c0,0.06-0.04,0.07-0.07,0.07h-0.31c-0.18,0-0.32,0.07-0.32,0.22
					c0,0.08-0.01,1.93-0.01,2.03V33.2z"/>
			</g>
			<g>
				<path class="st0" d="M32.52,32.13c0,1.42,0.07,2.6,0.08,2.86c0.02,0.42,0.11,0.62,0.42,0.62h0.21c0.07,0,0.07,0.03,0.07,0.07
					v0.2c0,0.05,0,0.07-0.07,0.07c-0.08,0-0.58-0.03-0.9-0.03c-0.22,0-0.79,0.03-0.87,0.03c-0.04,0-0.05-0.01-0.05-0.08v-0.21
					c0-0.01,0.02-0.05,0.05-0.05h0.28c0.22,0,0.33-0.19,0.38-0.69c0.01-0.15,0.05-1.33,0.05-2.67v-1.07c0-0.5-0.28-0.88-0.65-0.88
					h-0.27c-0.03-0.01-0.05-0.03-0.05-0.06V30c0-0.03,0.02-0.05,0.05-0.05c0.04,0,0.11,0,0.26,0.01c0.15,0.01,0.38,0.01,0.75,0.01
					c0.15,0,0.27-0.01,0.37-0.02c0.11,0,0.18,0,0.23,0c0.1,0,0.15,0.02,0.2,0.07c0.08,0.08,1.72,2.15,1.89,2.38
					c0.12,0.13,1.42,1.76,1.56,1.93h0.03v-0.87c0-0.74,0-1.16-0.02-1.58c-0.02-0.32-0.05-1.14-0.09-1.28
					c-0.06-0.2-0.24-0.32-0.44-0.32h-0.27c-0.05,0-0.05-0.03-0.05-0.08v-0.19c0-0.05,0-0.06,0.07-0.06c0.1,0,0.37,0.02,0.94,0.02
					c0.5,0,0.7-0.02,0.8-0.02c0.07,0,0.08,0.03,0.08,0.06v0.19c0,0.05-0.01,0.09-0.05,0.09h-0.23c-0.17,0-0.25,0.13-0.28,0.44
					c-0.04,0.56-0.13,1.97-0.13,2.83v2.21c0,0.11,0,0.23-0.1,0.23c-0.12,0-0.22-0.07-0.29-0.14c-0.07-0.08-0.52-0.6-1.04-1.22
					c-0.59-0.72-1.24-1.51-1.34-1.65c-0.12-0.11-1.46-1.79-1.56-1.91h-0.05V32.13z"/>
			</g>
			<g>
				<path class="st0" d="M42.29,30.69c-0.52,0.49-0.75,1.36-0.75,2.02c0,2.18,1.34,2.95,2.04,2.95c1.7,0,1.96-1.88,1.96-2.58
					c0-1.83-1.24-2.87-2.04-2.87C43.35,30.22,42.86,30.14,42.29,30.69z M45.51,30.52c0.62,0.51,1.14,1.35,1.14,2.48
					c0,0.62-0.17,1.28-0.63,1.84c-0.54,0.67-1.25,1.19-2.51,1.19c-0.5,0-1.22-0.16-1.89-0.56c-0.6-0.36-1.23-1.27-1.23-2.47
					c0-0.5,0.14-1.3,0.78-2.08c0.73-0.91,1.64-1.08,2.36-1.08C44.15,29.85,44.82,29.97,45.51,30.52"/>
			</g>
		</g>
	</g>
</g>
</svg>
